%TF.GenerationSoftware,KiCad,Pcbnew,(6.0.9)*%
%TF.CreationDate,2023-05-25T17:56:42+02:00*%
%TF.ProjectId,tiny1616_dev_board,74696e79-3136-4313-965f-6465765f626f,rev?*%
%TF.SameCoordinates,Original*%
%TF.FileFunction,Soldermask,Top*%
%TF.FilePolarity,Negative*%
%FSLAX46Y46*%
G04 Gerber Fmt 4.6, Leading zero omitted, Abs format (unit mm)*
G04 Created by KiCad (PCBNEW (6.0.9)) date 2023-05-25 17:56:42*
%MOMM*%
%LPD*%
G01*
G04 APERTURE LIST*
G04 Aperture macros list*
%AMRoundRect*
0 Rectangle with rounded corners*
0 $1 Rounding radius*
0 $2 $3 $4 $5 $6 $7 $8 $9 X,Y pos of 4 corners*
0 Add a 4 corners polygon primitive as box body*
4,1,4,$2,$3,$4,$5,$6,$7,$8,$9,$2,$3,0*
0 Add four circle primitives for the rounded corners*
1,1,$1+$1,$2,$3*
1,1,$1+$1,$4,$5*
1,1,$1+$1,$6,$7*
1,1,$1+$1,$8,$9*
0 Add four rect primitives between the rounded corners*
20,1,$1+$1,$2,$3,$4,$5,0*
20,1,$1+$1,$4,$5,$6,$7,0*
20,1,$1+$1,$6,$7,$8,$9,0*
20,1,$1+$1,$8,$9,$2,$3,0*%
%AMFreePoly0*
4,1,14,0.334644,0.085355,0.385355,0.034644,0.400000,-0.000711,0.400000,-0.050000,0.385355,-0.085355,0.350000,-0.100000,-0.350000,-0.100000,-0.385355,-0.085355,-0.400000,-0.050000,-0.400000,0.050000,-0.385355,0.085355,-0.350000,0.100000,0.299289,0.100000,0.334644,0.085355,0.334644,0.085355,$1*%
%AMFreePoly1*
4,1,14,0.385355,0.085355,0.400000,0.050000,0.400000,0.000711,0.385355,-0.034644,0.334644,-0.085355,0.299289,-0.100000,-0.350000,-0.100000,-0.385355,-0.085355,-0.400000,-0.050000,-0.400000,0.050000,-0.385355,0.085355,-0.350000,0.100000,0.350000,0.100000,0.385355,0.085355,0.385355,0.085355,$1*%
%AMFreePoly2*
4,1,14,0.085355,0.385355,0.100000,0.350000,0.100000,-0.350000,0.085355,-0.385355,0.050000,-0.400000,-0.050000,-0.400000,-0.085355,-0.385355,-0.100000,-0.350000,-0.100000,0.299289,-0.085355,0.334644,-0.034644,0.385355,0.000711,0.400000,0.050000,0.400000,0.085355,0.385355,0.085355,0.385355,$1*%
%AMFreePoly3*
4,1,14,0.034644,0.385355,0.085355,0.334644,0.100000,0.299289,0.100000,-0.350000,0.085355,-0.385355,0.050000,-0.400000,-0.050000,-0.400000,-0.085355,-0.385355,-0.100000,-0.350000,-0.100000,0.350000,-0.085355,0.385355,-0.050000,0.400000,-0.000711,0.400000,0.034644,0.385355,0.034644,0.385355,$1*%
%AMFreePoly4*
4,1,14,0.385355,0.085355,0.400000,0.050000,0.400000,-0.050000,0.385355,-0.085355,0.350000,-0.100000,-0.299289,-0.100000,-0.334644,-0.085355,-0.385355,-0.034644,-0.400000,0.000711,-0.400000,0.050000,-0.385355,0.085355,-0.350000,0.100000,0.350000,0.100000,0.385355,0.085355,0.385355,0.085355,$1*%
%AMFreePoly5*
4,1,14,0.385355,0.085355,0.400000,0.050000,0.400000,-0.050000,0.385355,-0.085355,0.350000,-0.100000,-0.350000,-0.100000,-0.385355,-0.085355,-0.400000,-0.050000,-0.400000,-0.000711,-0.385355,0.034644,-0.334644,0.085355,-0.299289,0.100000,0.350000,0.100000,0.385355,0.085355,0.385355,0.085355,$1*%
%AMFreePoly6*
4,1,14,0.085355,0.385355,0.100000,0.350000,0.100000,-0.299289,0.085355,-0.334644,0.034644,-0.385355,-0.000711,-0.400000,-0.050000,-0.400000,-0.085355,-0.385355,-0.100000,-0.350000,-0.100000,0.350000,-0.085355,0.385355,-0.050000,0.400000,0.050000,0.400000,0.085355,0.385355,0.085355,0.385355,$1*%
%AMFreePoly7*
4,1,14,0.085355,0.385355,0.100000,0.350000,0.100000,-0.350000,0.085355,-0.385355,0.050000,-0.400000,0.000711,-0.400000,-0.034644,-0.385355,-0.085355,-0.334644,-0.100000,-0.299289,-0.100000,0.350000,-0.085355,0.385355,-0.050000,0.400000,0.050000,0.400000,0.085355,0.385355,0.085355,0.385355,$1*%
G04 Aperture macros list end*
%ADD10R,0.600000X0.450000*%
%ADD11C,0.600000*%
%ADD12R,1.160000X0.600000*%
%ADD13R,1.160000X0.300000*%
%ADD14O,2.000000X0.900000*%
%ADD15O,1.700000X0.900000*%
%ADD16RoundRect,0.200000X-0.200000X-0.275000X0.200000X-0.275000X0.200000X0.275000X-0.200000X0.275000X0*%
%ADD17R,1.200000X1.400000*%
%ADD18RoundRect,0.218750X-0.256250X0.218750X-0.256250X-0.218750X0.256250X-0.218750X0.256250X0.218750X0*%
%ADD19R,2.000000X1.500000*%
%ADD20R,2.000000X3.800000*%
%ADD21R,1.700000X1.700000*%
%ADD22O,1.700000X1.700000*%
%ADD23RoundRect,0.200000X0.275000X-0.200000X0.275000X0.200000X-0.275000X0.200000X-0.275000X-0.200000X0*%
%ADD24RoundRect,0.200000X-0.275000X0.200000X-0.275000X-0.200000X0.275000X-0.200000X0.275000X0.200000X0*%
%ADD25RoundRect,0.225000X0.225000X0.250000X-0.225000X0.250000X-0.225000X-0.250000X0.225000X-0.250000X0*%
%ADD26RoundRect,0.225000X-0.250000X0.225000X-0.250000X-0.225000X0.250000X-0.225000X0.250000X0.225000X0*%
%ADD27R,3.500000X3.500000*%
%ADD28RoundRect,0.750000X-0.750000X-1.000000X0.750000X-1.000000X0.750000X1.000000X-0.750000X1.000000X0*%
%ADD29RoundRect,0.875000X-0.875000X-0.875000X0.875000X-0.875000X0.875000X0.875000X-0.875000X0.875000X0*%
%ADD30RoundRect,0.200000X0.200000X0.275000X-0.200000X0.275000X-0.200000X-0.275000X0.200000X-0.275000X0*%
%ADD31RoundRect,0.150000X0.825000X0.150000X-0.825000X0.150000X-0.825000X-0.150000X0.825000X-0.150000X0*%
%ADD32RoundRect,0.218750X0.256250X-0.218750X0.256250X0.218750X-0.256250X0.218750X-0.256250X-0.218750X0*%
%ADD33RoundRect,0.225000X-0.225000X-0.250000X0.225000X-0.250000X0.225000X0.250000X-0.225000X0.250000X0*%
%ADD34RoundRect,0.250000X-0.600000X-0.750000X0.600000X-0.750000X0.600000X0.750000X-0.600000X0.750000X0*%
%ADD35O,1.700000X2.000000*%
%ADD36FreePoly0,180.000000*%
%ADD37RoundRect,0.050000X0.350000X0.050000X-0.350000X0.050000X-0.350000X-0.050000X0.350000X-0.050000X0*%
%ADD38FreePoly1,180.000000*%
%ADD39FreePoly2,180.000000*%
%ADD40RoundRect,0.050000X0.050000X0.350000X-0.050000X0.350000X-0.050000X-0.350000X0.050000X-0.350000X0*%
%ADD41FreePoly3,180.000000*%
%ADD42FreePoly4,180.000000*%
%ADD43FreePoly5,180.000000*%
%ADD44FreePoly6,180.000000*%
%ADD45FreePoly7,180.000000*%
%ADD46RoundRect,0.250000X0.425000X-0.450000X0.425000X0.450000X-0.425000X0.450000X-0.425000X-0.450000X0*%
%ADD47RoundRect,0.150000X-0.825000X-0.150000X0.825000X-0.150000X0.825000X0.150000X-0.825000X0.150000X0*%
G04 APERTURE END LIST*
D10*
%TO.C,D2*%
X120870000Y-53340000D03*
X122970000Y-53340000D03*
%TD*%
D11*
%TO.C,J2*%
X127277200Y-50069000D03*
X127277200Y-55849000D03*
D12*
X126217200Y-56159000D03*
X126217200Y-55359000D03*
D13*
X126217200Y-54209000D03*
X126217200Y-53209000D03*
X126217200Y-52709000D03*
X126217200Y-51709000D03*
D12*
X126217200Y-50559000D03*
X126217200Y-49759000D03*
X126217200Y-49759000D03*
X126217200Y-50559000D03*
D13*
X126217200Y-51209000D03*
X126217200Y-52209000D03*
X126217200Y-53709000D03*
X126217200Y-54709000D03*
D12*
X126217200Y-55359000D03*
X126217200Y-56159000D03*
D14*
X126797200Y-57279000D03*
D15*
X130967200Y-57279000D03*
X130967200Y-48639000D03*
D14*
X126797200Y-48639000D03*
%TD*%
D16*
%TO.C,R5*%
X119190000Y-61087000D03*
X120840000Y-61087000D03*
%TD*%
D17*
%TO.C,Y1*%
X121959000Y-42334000D03*
X121959000Y-44534000D03*
X123659000Y-44534000D03*
X123659000Y-42334000D03*
%TD*%
D18*
%TO.C,D3*%
X99441000Y-50800000D03*
X99441000Y-52375000D03*
%TD*%
D19*
%TO.C,U1*%
X90068000Y-55383400D03*
X90068000Y-57683400D03*
D20*
X96368000Y-57683400D03*
D19*
X90068000Y-59983400D03*
%TD*%
D21*
%TO.C,J5*%
X99324000Y-38608000D03*
D22*
X101864000Y-38608000D03*
X104404000Y-38608000D03*
X106944000Y-38608000D03*
X109484000Y-38608000D03*
X112024000Y-38608000D03*
X114564000Y-38608000D03*
X117104000Y-38608000D03*
X119644000Y-38608000D03*
%TD*%
D23*
%TO.C,R4*%
X113157000Y-57340000D03*
X113157000Y-55690000D03*
%TD*%
D24*
%TO.C,R7*%
X101219000Y-44387000D03*
X101219000Y-46037000D03*
%TD*%
D25*
%TO.C,C3*%
X96025000Y-62357000D03*
X94475000Y-62357000D03*
%TD*%
D21*
%TO.C,J6*%
X99324000Y-64008000D03*
D22*
X101864000Y-64008000D03*
X104404000Y-64008000D03*
X106944000Y-64008000D03*
X109484000Y-64008000D03*
X112024000Y-64008000D03*
X114564000Y-64008000D03*
X117104000Y-64008000D03*
X119644000Y-64008000D03*
%TD*%
D25*
%TO.C,C5*%
X122822000Y-48006000D03*
X121272000Y-48006000D03*
%TD*%
D24*
%TO.C,R8*%
X122555000Y-55055000D03*
X122555000Y-56705000D03*
%TD*%
D25*
%TO.C,C6*%
X124473000Y-40132000D03*
X122923000Y-40132000D03*
%TD*%
D26*
%TO.C,C4*%
X101219000Y-47612000D03*
X101219000Y-49162000D03*
%TD*%
D27*
%TO.C,J1*%
X95662000Y-46540500D03*
D28*
X89662000Y-46540500D03*
D29*
X92662000Y-51240500D03*
%TD*%
D30*
%TO.C,R2*%
X122872000Y-49784000D03*
X121222000Y-49784000D03*
%TD*%
%TO.C,R3*%
X122872000Y-51435000D03*
X121222000Y-51435000D03*
%TD*%
D31*
%TO.C,U3*%
X118680000Y-50927000D03*
X118680000Y-49657000D03*
X118680000Y-48387000D03*
X118680000Y-47117000D03*
X118680000Y-45847000D03*
X118680000Y-44577000D03*
X118680000Y-43307000D03*
X118680000Y-42037000D03*
X113730000Y-42037000D03*
X113730000Y-43307000D03*
X113730000Y-44577000D03*
X113730000Y-45847000D03*
X113730000Y-47117000D03*
X113730000Y-48387000D03*
X113730000Y-49657000D03*
X113730000Y-50927000D03*
%TD*%
D21*
%TO.C,JP2*%
X104521000Y-60198000D03*
D22*
X104521000Y-57658000D03*
X104521000Y-55118000D03*
%TD*%
D21*
%TO.C,J3*%
X130180000Y-44816000D03*
D22*
X127640000Y-44816000D03*
X130180000Y-42276000D03*
X127640000Y-42276000D03*
X130180000Y-39736000D03*
X127640000Y-39736000D03*
%TD*%
D21*
%TO.C,JP1*%
X108458000Y-60198000D03*
D22*
X108458000Y-57658000D03*
X108458000Y-55118000D03*
%TD*%
D24*
%TO.C,R1*%
X99441000Y-44387000D03*
X99441000Y-46037000D03*
%TD*%
D32*
%TO.C,D1*%
X99441000Y-49174500D03*
X99441000Y-47599500D03*
%TD*%
D33*
%TO.C,C2*%
X91173000Y-62357000D03*
X92723000Y-62357000D03*
%TD*%
D24*
%TO.C,R9*%
X122555000Y-58230000D03*
X122555000Y-59880000D03*
%TD*%
%TO.C,R6*%
X101219000Y-50737000D03*
X101219000Y-52387000D03*
%TD*%
D34*
%TO.C,J4*%
X126766000Y-61930000D03*
D35*
X129266000Y-61930000D03*
%TD*%
D21*
%TO.C,JP3*%
X100584000Y-60233800D03*
D22*
X100584000Y-57693800D03*
X100584000Y-55153800D03*
%TD*%
D36*
%TO.C,U2*%
X108594000Y-47746000D03*
D37*
X108594000Y-47346000D03*
X108594000Y-46946000D03*
X108594000Y-46546000D03*
D38*
X108594000Y-46146000D03*
D39*
X107944000Y-45496000D03*
D40*
X107544000Y-45496000D03*
X107144000Y-45496000D03*
X106744000Y-45496000D03*
D41*
X106344000Y-45496000D03*
D42*
X105694000Y-46146000D03*
D37*
X105694000Y-46546000D03*
X105694000Y-46946000D03*
X105694000Y-47346000D03*
D43*
X105694000Y-47746000D03*
D44*
X106344000Y-48396000D03*
D40*
X106744000Y-48396000D03*
X107144000Y-48396000D03*
X107544000Y-48396000D03*
D45*
X107944000Y-48396000D03*
D21*
X107144000Y-46946000D03*
%TD*%
D46*
%TO.C,C1*%
X87376000Y-57738000D03*
X87376000Y-55038000D03*
%TD*%
D47*
%TO.C,U4*%
X115381000Y-55245000D03*
X115381000Y-56515000D03*
X115381000Y-57785000D03*
X115381000Y-59055000D03*
X120331000Y-59055000D03*
X120331000Y-57785000D03*
X120331000Y-56515000D03*
X120331000Y-55245000D03*
%TD*%
M02*
