%TF.GenerationSoftware,KiCad,Pcbnew,(6.0.9)*%
%TF.CreationDate,2023-05-25T17:56:42+02:00*%
%TF.ProjectId,tiny1616_dev_board,74696e79-3136-4313-965f-6465765f626f,rev?*%
%TF.SameCoordinates,Original*%
%TF.FileFunction,Soldermask,Bot*%
%TF.FilePolarity,Negative*%
%FSLAX46Y46*%
G04 Gerber Fmt 4.6, Leading zero omitted, Abs format (unit mm)*
G04 Created by KiCad (PCBNEW (6.0.9)) date 2023-05-25 17:56:42*
%MOMM*%
%LPD*%
G01*
G04 APERTURE LIST*
G04 Aperture macros list*
%AMRoundRect*
0 Rectangle with rounded corners*
0 $1 Rounding radius*
0 $2 $3 $4 $5 $6 $7 $8 $9 X,Y pos of 4 corners*
0 Add a 4 corners polygon primitive as box body*
4,1,4,$2,$3,$4,$5,$6,$7,$8,$9,$2,$3,0*
0 Add four circle primitives for the rounded corners*
1,1,$1+$1,$2,$3*
1,1,$1+$1,$4,$5*
1,1,$1+$1,$6,$7*
1,1,$1+$1,$8,$9*
0 Add four rect primitives between the rounded corners*
20,1,$1+$1,$2,$3,$4,$5,0*
20,1,$1+$1,$4,$5,$6,$7,0*
20,1,$1+$1,$6,$7,$8,$9,0*
20,1,$1+$1,$8,$9,$2,$3,0*%
G04 Aperture macros list end*
%ADD10C,0.600000*%
%ADD11O,2.000000X0.900000*%
%ADD12O,1.700000X0.900000*%
%ADD13R,1.700000X1.700000*%
%ADD14O,1.700000X1.700000*%
%ADD15R,3.500000X3.500000*%
%ADD16RoundRect,0.750000X-0.750000X-1.000000X0.750000X-1.000000X0.750000X1.000000X-0.750000X1.000000X0*%
%ADD17RoundRect,0.875000X-0.875000X-0.875000X0.875000X-0.875000X0.875000X0.875000X-0.875000X0.875000X0*%
%ADD18RoundRect,0.250000X-0.600000X-0.750000X0.600000X-0.750000X0.600000X0.750000X-0.600000X0.750000X0*%
%ADD19O,1.700000X2.000000*%
G04 APERTURE END LIST*
D10*
%TO.C,J2*%
X127277200Y-50069000D03*
X127277200Y-55849000D03*
D11*
X126797200Y-57279000D03*
D12*
X130967200Y-57279000D03*
X130967200Y-48639000D03*
D11*
X126797200Y-48639000D03*
%TD*%
D13*
%TO.C,J5*%
X99324000Y-38608000D03*
D14*
X101864000Y-38608000D03*
X104404000Y-38608000D03*
X106944000Y-38608000D03*
X109484000Y-38608000D03*
X112024000Y-38608000D03*
X114564000Y-38608000D03*
X117104000Y-38608000D03*
X119644000Y-38608000D03*
%TD*%
D13*
%TO.C,J6*%
X99324000Y-64008000D03*
D14*
X101864000Y-64008000D03*
X104404000Y-64008000D03*
X106944000Y-64008000D03*
X109484000Y-64008000D03*
X112024000Y-64008000D03*
X114564000Y-64008000D03*
X117104000Y-64008000D03*
X119644000Y-64008000D03*
%TD*%
D15*
%TO.C,J1*%
X95662000Y-46540500D03*
D16*
X89662000Y-46540500D03*
D17*
X92662000Y-51240500D03*
%TD*%
D13*
%TO.C,JP2*%
X104521000Y-60198000D03*
D14*
X104521000Y-57658000D03*
X104521000Y-55118000D03*
%TD*%
D13*
%TO.C,J3*%
X130180000Y-44816000D03*
D14*
X127640000Y-44816000D03*
X130180000Y-42276000D03*
X127640000Y-42276000D03*
X130180000Y-39736000D03*
X127640000Y-39736000D03*
%TD*%
D13*
%TO.C,JP1*%
X108458000Y-60198000D03*
D14*
X108458000Y-57658000D03*
X108458000Y-55118000D03*
%TD*%
D18*
%TO.C,J4*%
X126766000Y-61930000D03*
D19*
X129266000Y-61930000D03*
%TD*%
D13*
%TO.C,JP3*%
X100584000Y-60233800D03*
D14*
X100584000Y-57693800D03*
X100584000Y-55153800D03*
%TD*%
M02*
